<?xml version="1.0" standalone="no"?>
<!DOCTYPE svg PUBLIC "-//W3C//DTD SVG 20010904//EN"
 "http://www.w3.org/TR/2001/REC-SVG-20010904/DTD/svg10.dtd">
<svg version="1.0" xmlns="http://www.w3.org/2000/svg"
 width="808.000000pt" height="808.000000pt" viewBox="0 0 808.000000 808.000000"
 preserveAspectRatio="xMidYMid meet">
<metadata>
Created by potrace 1.14, written by Peter Selinger 2001-2017
</metadata>
<g transform="translate(0.000000,808.000000) scale(0.100000,-0.100000)"
fill="#000000" stroke="none">
<path d="M2676 8069 c2 -4 -3 -9 -10 -12 -8 -3 -17 -1 -20 6 -3 9 -8 8 -18 -3
-9 -10 -31 -15 -70 -14 -37 1 -58 -3 -58 -10 0 -6 -5 -4 -10 4 -5 8 -10 10
-10 4 0 -6 -7 -11 -15 -12 -8 -1 -22 -3 -30 -4 -8 -1 -15 -6 -15 -12 0 -6 -4
-5 -9 3 -6 9 -11 10 -15 2 -4 -6 -25 -11 -47 -11 -24 0 -39 -5 -39 -12 0 -9
-4 -8 -10 2 -8 12 -10 12 -10 1 0 -8 -3 -11 -7 -8 -3 4 -12 2 -20 -4 -7 -6
-13 -8 -13 -4 0 4 -6 3 -13 -3 -7 -6 -28 -12 -45 -14 -18 -1 -32 -7 -32 -13 0
-5 -4 -3 -10 5 -8 13 -10 12 -15 -1 -4 -10 -16 -15 -31 -13 -19 2 -23 -1 -14
-10 8 -10 4 -12 -16 -8 -16 3 -30 -1 -35 -9 -7 -11 -9 -11 -9 -1 0 10 -4 9
-16 -2 -8 -9 -19 -14 -24 -11 -5 3 -11 -1 -13 -7 -4 -9 -6 -8 -6 2 -1 11 -8 8
-22 -10 -11 -14 -18 -19 -14 -12 6 11 3 11 -13 1 -12 -7 -19 -16 -17 -19 2 -4
-1 -7 -8 -7 -47 -3 -82 -12 -85 -22 -2 -6 -8 -11 -13 -11 -6 0 -7 5 -3 12 4 7
3 8 -5 4 -6 -4 -9 -11 -7 -14 2 -4 -7 -12 -20 -19 -18 -8 -23 -8 -18 0 3 7 -1
4 -9 -6 -8 -10 -24 -19 -35 -20 -11 0 -19 -4 -16 -8 2 -4 0 -10 -6 -14 -5 -3
-10 -1 -10 5 0 7 -5 6 -14 -2 -8 -7 -11 -17 -8 -23 3 -5 -1 -4 -10 3 -14 11
-18 10 -28 -9 -10 -17 -14 -19 -21 -8 -8 12 -13 6 -11 -13 1 -3 -5 -9 -13 -12
-8 -3 -15 0 -15 7 0 7 -7 4 -15 -7 -8 -10 -19 -15 -26 -10 -9 5 -10 2 -6 -9 3
-9 0 -18 -9 -21 -10 -4 -12 -2 -8 6 4 7 3 8 -4 4 -7 -4 -12 -15 -12 -24 0 -13
-2 -14 -9 -3 -6 9 -11 10 -15 2 -4 -6 -11 -9 -16 -6 -5 3 -12 -6 -16 -20 -3
-14 -11 -25 -16 -25 -6 0 -8 7 -4 15 4 12 2 13 -14 3 -10 -7 -18 -14 -18 -17
2 -19 -4 -22 -17 -11 -12 10 -14 8 -10 -9 2 -11 1 -20 -3 -20 -19 3 -33 -2
-28 -10 4 -5 -2 -7 -12 -4 -11 2 -26 -5 -37 -19 l-20 -23 21 18 c11 9 25 17
30 17 5 0 1 -5 -9 -11 -9 -6 -15 -15 -11 -20 3 -5 2 -9 -3 -8 -23 4 -53 -2
-49 -10 3 -5 -5 -12 -19 -15 -15 -4 -25 -14 -25 -24 0 -15 -2 -15 -10 -2 -8
13 -10 12 -10 -3 0 -11 -4 -15 -12 -11 -8 5 -9 2 -4 -11 5 -15 4 -16 -8 -6
-11 9 -16 9 -22 0 -4 -8 -3 -9 4 -5 7 4 12 2 12 -3 0 -10 -21 -16 -42 -12 -5
0 -7 -2 -7 -7 4 -21 -2 -42 -12 -42 -5 0 -7 5 -3 12 4 7 3 8 -5 4 -6 -4 -9
-12 -6 -17 6 -8 -9 -13 -28 -10 -5 1 -6 -3 -2 -9 3 -6 12 -7 18 -3 7 4 7 1 -1
-9 -8 -9 -19 -15 -26 -12 -7 3 -19 -3 -27 -13 -12 -16 -12 -17 2 -6 12 10 16
10 16 0 0 -7 -9 -14 -20 -14 -11 -1 -25 -7 -31 -14 -8 -9 -8 -10 2 -5 6 4 12
2 12 -3 0 -10 -21 -16 -43 -12 -4 0 -6 -2 -6 -6 4 -22 -2 -43 -12 -43 -5 0 -7
5 -3 12 4 7 3 8 -5 4 -6 -4 -9 -12 -6 -17 6 -8 -9 -13 -28 -10 -5 1 -6 -3 -2
-9 3 -6 12 -7 18 -3 7 4 7 1 -1 -9 -8 -9 -19 -15 -26 -12 -7 3 -19 -3 -27 -13
-12 -16 -12 -17 2 -6 13 10 16 10 16 -2 0 -8 -4 -12 -8 -9 -4 2 -14 -2 -22
-10 -8 -8 -17 -13 -20 -10 -2 3 -7 -2 -11 -11 -3 -9 -2 -13 4 -10 6 3 7 -1 4
-9 -3 -9 -10 -13 -15 -10 -5 3 -14 2 -21 -2 -7 -5 -5 -11 7 -21 18 -12 18 -13
-4 -13 -17 0 -22 -4 -17 -16 5 -13 4 -14 -7 -6 -11 9 -16 4 -27 -23 -7 -19
-16 -33 -19 -31 -3 2 -13 -3 -21 -12 -13 -14 -12 -15 4 -9 16 6 17 5 6 -8 -7
-8 -20 -15 -29 -15 -11 0 -12 -3 -4 -8 8 -5 9 -13 3 -22 -7 -10 -10 -11 -10
-2 0 6 -4 12 -9 12 -5 0 -8 -11 -7 -24 2 -16 -1 -23 -9 -20 -8 4 -11 -4 -10
-20 2 -15 -1 -24 -6 -20 -5 3 -6 10 -3 16 4 7 2 8 -4 4 -7 -4 -12 -14 -12 -22
0 -8 -4 -14 -10 -14 -5 0 -6 -7 -3 -17 4 -10 2 -14 -4 -10 -13 8 -26 -20 -16
-36 4 -6 0 -8 -11 -4 -14 6 -15 4 -5 -14 7 -15 7 -19 0 -15 -6 4 -13 -4 -17
-18 -3 -13 -13 -27 -21 -30 -9 -4 -13 -13 -9 -22 4 -11 2 -15 -8 -11 -10 4
-14 0 -11 -14 2 -10 -1 -19 -6 -19 -6 0 -7 -4 -4 -10 3 -5 0 -10 -7 -10 -10 0
-9 -3 2 -10 12 -7 10 -11 -10 -19 -14 -5 -20 -10 -13 -10 8 -1 8 -7 0 -25 -7
-13 -16 -22 -22 -18 -5 3 -3 -3 5 -13 9 -11 10 -16 3 -11 -8 4 -13 2 -13 -4 0
-6 -5 -8 -13 -4 -8 5 -8 2 2 -9 11 -13 11 -17 1 -17 -8 0 -10 -3 -7 -7 4 -3
-1 -12 -11 -20 -10 -9 -11 -11 -2 -7 13 7 13 5 1 -9 -11 -14 -11 -17 0 -17 11
0 11 -2 -1 -10 -8 -5 -11 -12 -7 -16 4 -4 -1 -13 -11 -20 -15 -12 -15 -15 -2
-24 12 -8 13 -10 1 -10 -8 0 -11 -3 -8 -7 4 -3 -1 -12 -11 -20 -11 -9 -11 -12
-2 -7 12 6 13 4 3 -7 -7 -7 -13 -33 -13 -57 0 -32 -3 -41 -12 -36 -8 5 -7 0 2
-11 12 -15 12 -17 1 -10 -11 6 -13 4 -8 -7 3 -9 0 -21 -6 -27 -8 -8 -7 -11 3
-11 9 0 8 -5 -6 -15 -14 -11 -15 -14 -4 -15 9 0 11 -3 5 -8 -11 -8 -17 -28
-18 -52 0 -8 -3 -20 -8 -26 -5 -5 -9 -38 -10 -72 -1 -34 -5 -59 -9 -57 -4 2
-8 -62 -9 -142 -1 -81 -5 -151 -8 -157 -12 -19 -15 -134 -4 -140 8 -5 11 -468
12 -1599 0 -876 2 -1602 3 -1614 1 -13 5 -26 9 -29 4 -4 7 -27 7 -51 0 -27 4
-42 10 -38 14 9 13 -8 -2 -23 -9 -9 -9 -12 0 -12 7 0 12 -8 12 -18 0 -10 6
-24 12 -31 7 -8 8 -11 2 -8 -6 3 -11 0 -11 -8 0 -8 4 -12 8 -10 4 3 9 -2 12
-9 3 -8 2 -16 -3 -18 -6 -2 -3 -16 5 -31 8 -15 10 -25 5 -22 -6 3 -7 -1 -4 -9
3 -9 11 -16 16 -16 6 0 6 -5 -1 -14 -9 -11 -8 -17 4 -29 11 -12 12 -17 2 -20
-9 -4 -9 -6 1 -6 6 -1 12 -12 12 -26 0 -14 5 -25 12 -25 9 0 9 -3 0 -12 -7 -7
-12 -16 -12 -22 0 -5 3 -6 7 -3 3 4 11 -3 18 -16 8 -15 8 -24 1 -29 -7 -5 -7
-8 2 -8 6 0 12 -11 12 -25 0 -14 4 -25 8 -25 5 0 9 -6 10 -12 8 -59 18 -82 32
-73 5 3 12 0 16 -6 4 -7 3 -9 -3 -6 -6 4 -13 0 -17 -8 -3 -8 -1 -15 5 -15 6 0
7 -5 4 -10 -3 -6 1 -10 9 -10 9 0 16 -5 16 -11 0 -5 -4 -8 -8 -5 -5 3 -9 -1
-9 -9 0 -8 2 -13 5 -11 2 3 10 -1 17 -7 10 -9 10 -15 1 -26 -6 -8 -6 -12 -1
-9 6 3 15 0 22 -7 10 -11 10 -15 0 -19 -7 -3 -2 -8 11 -12 18 -5 20 -9 11 -21
-10 -11 -8 -15 10 -20 17 -4 19 -8 9 -14 -10 -7 -11 -9 0 -9 7 0 10 -4 7 -10
-3 -5 -1 -10 5 -10 7 0 10 -6 7 -14 -3 -8 2 -20 11 -28 16 -12 16 -11 2 7 -14
19 -14 19 3 6 9 -7 17 -23 17 -35 0 -18 2 -19 11 -6 9 12 10 11 6 -6 -2 -12 0
-28 5 -35 8 -11 9 -10 4 4 -10 31 5 18 20 -18 8 -20 22 -35 32 -36 14 0 14 -2
-3 -9 -18 -8 -18 -9 -2 -9 10 -1 16 -5 13 -10 -4 -5 -1 -11 4 -13 6 -2 12 -13
12 -25 2 -14 7 -19 17 -15 9 3 12 1 7 -6 -4 -7 -2 -12 4 -12 6 0 8 -5 4 -12
-5 -9 -2 -9 9 1 20 16 23 1 5 -18 -11 -10 -10 -12 2 -9 8 2 15 -4 15 -12 0
-22 28 -48 38 -36 5 7 7 1 4 -12 -4 -18 -3 -21 7 -13 17 14 26 4 27 -28 l1
-26 8 25 c8 24 8 24 9 3 1 -13 6 -23 12 -23 5 0 7 -4 4 -10 -3 -5 -2 -10 4
-10 5 0 12 6 14 13 3 6 6 2 6 -10 1 -13 6 -23 11 -23 6 0 10 -8 10 -17 0 -9 3
-13 7 -9 4 3 13 -4 21 -16 9 -16 12 -17 7 -4 -5 16 -3 17 10 6 11 -9 12 -16 5
-26 -9 -10 -7 -11 9 -7 18 4 21 0 22 -23 l1 -29 8 25 c8 24 8 24 9 3 1 -13 6
-23 12 -23 5 0 7 -5 4 -10 -3 -6 -2 -10 4 -10 5 0 12 6 14 13 3 6 6 2 6 -10 1
-13 6 -23 11 -23 6 0 10 -7 10 -16 0 -8 4 -13 9 -9 5 3 12 -4 16 -15 3 -11 11
-20 16 -20 6 0 7 5 4 10 -3 6 -4 10 -1 10 3 0 13 -15 21 -32 8 -18 13 -24 10
-13 -5 19 -4 19 9 2 8 -10 23 -19 34 -20 11 0 20 -4 20 -7 -2 -25 4 -39 16
-34 8 3 19 -3 26 -16 9 -17 14 -19 26 -9 12 10 15 10 12 -2 -2 -8 5 -14 14
-14 10 0 23 -7 30 -15 11 -12 10 -12 -7 0 -18 14 -19 14 -6 -2 7 -10 20 -18
27 -18 8 0 14 -4 14 -9 0 -5 7 -11 14 -14 11 -4 13 -1 9 11 -4 13 -2 12 10 -3
9 -11 17 -27 17 -35 0 -13 1 -13 10 0 5 8 10 10 10 4 0 -5 16 -16 35 -24 19
-8 35 -17 35 -22 0 -4 7 -8 15 -8 8 0 15 -6 15 -12 0 -10 2 -10 9 0 6 10 10 8
14 -9 5 -18 9 -20 20 -10 12 9 16 7 21 -11 4 -14 9 -18 12 -11 4 9 11 9 29 -3
13 -9 29 -13 35 -9 7 4 14 -2 17 -14 5 -18 26 -27 56 -22 4 0 7 -4 7 -10 0 -7
10 -9 25 -7 13 3 22 2 20 -3 -3 -4 -1 -10 5 -14 5 -3 10 0 10 7 0 7 7 2 16
-10 13 -19 18 -21 32 -10 12 10 14 10 8 0 -5 -8 0 -12 13 -12 12 0 21 -6 21
-12 0 -9 4 -8 10 2 6 10 10 11 10 3 0 -7 10 -13 23 -13 13 0 28 -5 35 -12 8
-8 12 -8 12 -1 0 14 50 -8 50 -22 0 -5 5 -3 10 5 6 10 10 11 10 3 0 -9 18 -13
55 -13 30 0 55 -4 55 -10 0 -5 23 -8 50 -7 31 1 50 -2 50 -9 0 -6 7 -11 15
-11 8 0 12 4 9 9 -3 4 -1 8 5 8 5 0 11 -5 13 -12 3 -8 23 -11 57 -9 36 2 51
-1 46 -8 -9 -15 8 -14 23 1 9 9 12 9 12 0 0 -18 3266 -17 3273 1 4 9 6 9 6 0
1 -7 6 -13 12 -13 5 0 7 5 4 10 -4 6 25 10 79 10 58 0 86 4 89 13 4 9 6 9 6
-1 1 -9 6 -10 20 -2 11 5 40 11 65 11 29 2 43 6 39 13 -4 6 2 4 12 -4 11 -9
16 -10 11 -2 -5 8 1 12 18 12 14 0 26 6 26 13 0 8 4 7 10 -3 5 -8 10 -10 10
-3 0 6 13 10 30 9 19 -1 31 3 35 13 5 14 7 14 15 1 8 -12 10 -12 10 -1 0 8 7
11 20 8 11 -3 20 -1 20 5 0 5 5 6 10 3 6 -3 10 -2 10 4 0 6 6 8 14 5 7 -3 16
2 19 10 4 9 13 13 20 10 8 -3 22 2 31 11 9 9 16 12 16 7 0 -5 6 -9 14 -9 8 0
12 6 8 15 -3 9 -1 13 5 9 6 -4 14 -1 16 5 4 10 6 10 6 1 1 -7 6 -13 12 -13 5
0 7 5 4 10 -3 6 0 11 7 11 39 4 70 18 62 30 -3 5 -1 9 5 9 5 0 12 -6 14 -12 4
-10 6 -10 6 0 1 7 6 10 13 6 7 -5 9 -2 5 8 -4 12 -1 14 15 10 15 -3 19 -2 14
7 -5 8 0 10 18 7 19 -3 23 -1 19 11 -4 10 -2 14 4 10 6 -4 14 -1 16 5 4 10 6
10 6 0 1 -10 4 -10 15 0 8 7 11 18 8 23 -3 6 3 3 13 -5 15 -12 17 -12 10 -1
-6 11 -4 13 9 8 13 -5 17 -3 13 7 -4 11 -1 13 10 9 10 -4 14 -2 10 4 -8 12 20
26 34 17 5 -3 9 2 9 10 0 10 7 13 21 11 18 -4 19 -2 7 12 -9 12 -9 15 0 9 6
-4 12 -2 12 3 0 6 6 10 13 9 6 -2 11 2 10 9 -2 7 4 10 12 6 13 -4 13 -8 3 -22
-12 -14 -11 -14 4 -3 10 8 17 17 16 20 -2 20 3 32 12 27 6 -3 10 -1 10 4 0 6
12 11 28 11 21 0 24 2 12 10 -13 8 -12 10 3 10 9 0 17 5 17 11 0 5 5 7 12 3 8
-5 9 -2 5 9 -3 10 -2 17 3 17 6 0 10 -5 10 -11 0 -5 5 -7 10 -4 8 5 7 11 0 20
-10 11 -8 13 9 10 12 -2 19 0 16 6 -6 8 8 13 28 10 5 -1 6 3 2 9 -3 5 -1 10 6
10 7 0 9 3 6 6 -4 4 -12 3 -20 -2 -7 -5 -4 -1 6 9 11 9 26 17 34 17 8 0 11 5
7 12 -5 8 -2 9 10 5 14 -6 15 -4 5 14 -8 15 -8 19 0 15 6 -4 11 -1 11 6 0 9 3
9 10 -2 8 -12 10 -10 11 10 0 14 3 19 6 12 2 -6 9 -9 14 -6 6 4 6 11 -1 19
-10 11 -8 13 9 10 12 -2 19 0 16 6 -5 8 7 13 26 11 3 -1 6 6 6 13 0 12 -3 12
-16 2 -14 -11 -14 -10 -2 6 8 10 19 16 25 14 6 -2 19 7 29 20 10 13 23 21 28
18 5 -4 9 -2 9 4 0 5 -5 11 -11 13 -7 2 -4 10 7 18 11 9 15 10 10 3 -4 -7 -3
-13 2 -13 5 0 12 9 15 21 3 12 10 18 17 14 6 -3 9 -2 8 3 -2 6 2 11 7 12 17 4
37 39 29 52 -4 7 -3 8 4 4 8 -4 12 0 12 11 0 15 2 16 11 3 8 -12 9 -12 7 5 -3
24 9 45 25 45 7 0 3 -7 -7 -15 -11 -8 -15 -15 -9 -15 20 0 33 25 20 40 -6 7
-7 10 -2 8 6 -3 15 0 22 7 10 11 10 15 0 18 -9 4 -9 6 1 6 6 1 12 7 12 15 0 8
5 18 12 22 7 5 8 3 3 -7 -7 -12 -6 -12 7 -1 9 7 15 22 13 33 -4 17 6 24 28 20
5 -1 6 3 2 9 -3 6 -11 7 -17 4 -7 -4 -8 -2 -4 4 4 7 14 12 22 12 8 0 12 5 9
10 -4 6 -12 7 -18 3 -7 -4 -6 0 2 10 15 19 26 23 15 5 -4 -7 -3 -8 4 -4 6 4 9
13 6 20 -3 8 0 17 5 21 6 3 9 11 6 16 -3 5 1 6 9 3 11 -4 16 0 16 10 0 9 6 16
13 16 8 0 7 3 -3 10 -12 7 -10 11 9 18 17 6 21 11 12 16 -9 6 -9 11 0 22 6 8
8 14 3 14 -4 0 1 7 12 15 11 8 14 15 7 15 -7 0 -13 5 -13 12 0 6 3 9 6 5 10
-9 32 16 27 30 -3 8 3 13 13 14 11 0 14 3 7 5 -9 4 -9 11 0 32 6 15 16 30 22
34 6 5 5 8 -3 8 -10 0 -9 4 2 16 9 8 14 20 11 25 -4 5 0 9 7 9 10 0 10 2 -1 9
-11 7 -10 11 5 20 11 6 15 11 11 11 -4 0 -3 9 3 19 5 11 11 31 12 45 1 15 6
26 11 26 5 0 7 6 4 13 -2 6 3 18 12 25 9 8 10 11 4 7 -7 -3 -13 -1 -13 4 0 6
6 11 13 11 9 0 8 3 -2 9 -7 5 -9 10 -3 12 6 2 12 18 14 34 1 17 7 33 13 37 6
5 5 8 -4 8 -11 0 -11 3 -2 14 7 8 11 30 9 48 -2 20 3 38 12 45 13 11 13 12 0
13 -11 0 -12 2 -3 8 7 5 14 20 15 35 1 15 7 27 13 27 5 0 4 4 -4 9 -13 8 -13
12 -1 26 8 10 13 34 11 57 -1 21 3 46 9 54 10 11 10 14 -1 14 -10 0 -11 2 -2
8 8 5 13 46 14 125 1 85 4 115 13 110 7 -4 7 -2 -1 8 -8 10 -9 19 -3 25 13 13
14 3245 2 3253 -5 4 -10 37 -11 76 -2 40 -8 73 -14 77 -8 5 -7 8 3 8 13 1 13
2 0 13 -9 7 -15 28 -15 52 0 38 -3 51 -25 94 -6 14 -6 21 3 24 9 4 9 6 0 6 -9
1 -13 17 -13 46 0 25 -4 45 -10 45 -5 0 -9 6 -7 13 1 6 -4 11 -10 10 -7 -2
-13 2 -13 7 0 6 6 10 13 10 9 0 8 3 -2 9 -7 5 -11 15 -9 22 3 8 -2 20 -11 27
-9 8 -10 11 -3 7 6 -3 12 -1 12 4 0 6 -6 11 -12 11 -9 0 -8 4 2 10 12 8 12 10
1 10 -8 0 -11 7 -8 19 3 12 -1 22 -10 25 -13 5 -13 9 -2 23 8 10 9 14 2 10
-13 -8 -25 7 -30 38 -6 46 -10 57 -26 75 -11 13 -12 20 -4 24 7 2 3 5 -8 5
-17 1 -17 3 -5 11 12 8 12 10 -5 10 -17 0 -17 2 -5 10 8 5 10 10 5 10 -6 0
-16 9 -23 21 -8 12 -9 19 -4 15 5 -3 9 1 9 9 0 8 -3 13 -6 11 -13 -8 -31 21
-31 50 0 9 -5 12 -12 8 -8 -5 -9 -2 -5 10 6 14 3 17 -9 12 -14 -6 -15 -4 -4 9
11 13 11 16 -1 13 -8 -2 -13 3 -12 10 2 6 -2 12 -7 12 -6 0 -10 7 -10 16 0 9
-5 12 -12 8 -8 -5 -7 0 2 11 9 11 10 16 3 11 -9 -5 -13 0 -13 13 0 15 -7 21
-22 22 -22 0 -22 1 -3 9 18 8 18 9 2 9 -10 1 -15 6 -12 11 3 6 1 10 -5 10 -6
0 -8 5 -5 10 3 6 -1 10 -10 10 -9 0 -13 5 -10 10 3 6 1 10 -6 10 -7 0 -9 3 -6
6 3 4 -5 16 -19 26 -14 11 -23 25 -21 32 2 6 -9 24 -25 39 -15 16 -28 35 -28
42 0 8 -7 18 -15 23 -9 4 -17 18 -18 29 -1 15 -7 20 -20 17 -13 -2 -17 1 -13
11 3 8 1 15 -4 15 -6 0 -10 -6 -11 -12 0 -7 -5 3 -11 22 -6 19 -13 29 -15 22
-3 -6 -9 -9 -14 -6 -6 3 -5 12 3 22 12 14 10 14 -12 2 -24 -13 -24 -12 -10 5
14 17 13 18 -4 12 -14 -6 -17 -4 -12 9 5 12 2 15 -9 10 -9 -3 -13 -2 -10 4 3
6 1 10 -5 10 -6 0 -8 5 -5 10 3 6 -1 10 -10 10 -9 0 -13 5 -10 10 3 6 -1 10
-9 10 -8 0 -17 8 -21 19 -3 10 -13 18 -23 17 -12 -1 -17 6 -16 21 0 17 -3 20
-12 12 -8 -6 -14 -6 -18 0 -3 5 0 12 6 15 7 4 3 4 -10 2 -18 -3 -21 -1 -13 8
13 15 4 26 -20 26 -10 0 -21 5 -25 12 -5 7 -3 8 6 3 8 -5 11 -4 6 3 -4 6 -14
8 -23 5 -12 -5 -15 -2 -10 9 4 11 1 14 -11 11 -12 -3 -23 8 -36 32 -14 26 -25
35 -38 32 -10 -3 -16 -1 -12 4 3 5 0 9 -6 9 -6 0 -8 5 -5 10 3 6 -1 10 -10 10
-10 0 -14 -5 -9 -12 3 -7 -6 -1 -20 15 -15 15 -31 25 -36 22 -6 -3 -7 1 -4 9
3 9 -2 17 -15 21 -12 3 -19 11 -16 16 3 5 0 6 -8 3 -8 -3 -23 3 -32 13 -10 10
-21 18 -24 18 -3 0 -5 4 -3 9 2 5 -4 3 -13 -4 -12 -10 -15 -10 -13 -1 2 7 -6
18 -17 24 -11 7 -23 17 -27 22 -5 6 -8 5 -8 -2 0 -7 -4 -13 -10 -13 -5 0 -9 3
-7 8 1 4 -2 7 -6 7 -5 0 -15 11 -24 25 -10 18 -13 19 -9 5 6 -19 5 -19 -8 -2
-7 9 -18 17 -25 17 -6 0 -11 6 -11 13 0 8 -4 7 -10 -3 -8 -13 -10 -12 -10 3 0
10 -4 15 -10 12 -5 -3 -10 -1 -10 4 0 6 -9 11 -20 11 -11 0 -20 5 -20 11 0 5
-4 7 -10 4 -5 -3 -10 2 -10 12 0 15 -2 16 -10 3 -6 -10 -10 -11 -10 -2 0 6 -9
12 -20 12 -11 0 -20 5 -20 10 0 6 -9 10 -21 10 -13 0 -18 4 -13 13 5 7 0 6
-11 -3 -11 -9 -16 -10 -11 -2 7 11 3 13 -44 16 -8 1 -16 9 -18 19 -2 9 -8 17
-13 17 -6 0 -8 -4 -5 -8 3 -5 -1 -9 -9 -9 -8 0 -12 4 -10 8 5 7 -33 22 -49 20
-4 -1 -15 4 -24 11 -13 11 -14 11 -7 -2 5 -9 -1 -7 -15 5 -15 13 -21 15 -16 5
4 -8 0 -6 -8 4 -12 15 -16 16 -16 5 -1 -10 -4 -9 -11 4 -8 14 -14 16 -25 6
-10 -8 -14 -8 -14 0 0 6 -7 11 -16 11 -30 0 -93 23 -88 31 8 13 -10 11 -24 -3
-9 -9 -12 -9 -12 1 0 8 -7 11 -19 8 -12 -3 -22 1 -26 11 -5 14 -7 14 -15 2 -8
-12 -10 -12 -10 -1 0 9 -10 12 -35 9 -27 -3 -35 0 -35 12 0 13 -1 13 -10 0 -5
-8 -10 -10 -10 -4 0 7 -27 12 -67 13 -37 1 -72 5 -78 10 -5 4 -37 8 -70 10
-33 2 -66 8 -72 13 -9 7 -13 7 -13 -2 0 -9 -3 -10 -13 -1 -15 12 -2709 22
-2701 10z m4654 -1029 c0 -5 -2 -10 -4 -10 -3 0 -8 5 -11 10 -3 6 -1 10 4 10
6 0 11 -4 11 -10z m341 -577 c13 -16 12 -17 -3 -4 -10 7 -18 15 -18 17 0 8 8
3 21 -13z m-431 -5687 c0 -2 -8 -10 -17 -17 -16 -13 -17 -12 -4 4 13 16 21 21
21 13z"/>
<path d="M7400 6945 c0 -2 6 -8 13 -14 10 -8 14 -7 14 2 0 8 -6 14 -14 14 -7
0 -13 -1 -13 -2z"/>
</g>
</svg>
